<?xml version="1.0" encoding="iso-8859-1"?>
<!-- Generator: Adobe Illustrator 21.0.0, SVG Export Plug-In . SVG Version: 6.00 Build 0)  -->
<svg version="1.1" id="Capa_1" xmlns="http://www.w3.org/2000/svg" xmlns:xlink="http://www.w3.org/1999/xlink" x="0px" y="0px"
	 viewBox="0 0 480 480" style="enable-background:new 0 0 480 480;" xml:space="preserve">
<g>
	<g>
		<path d="M440,328c-12.8,0-23.2-9.6-24-22.4c30.4-12.8,48.8-43.2,48-76c0-1.6,0-4.8,0-5.6c0-40-32-72-72-72h-96c-4.8,0-8,3.2-8,8
			c0,18.4,7.2,36,19.2,48.8c-1.6,8-3.2,15.2-3.2,23.2c0,32,19.2,60.8,48,73.6c-0.8,12.8-11.2,22.4-24,22.4c-22.4,0-40,17.6-40,40
			v112h16V368c0-12.8,10.4-24,23.2-24l39.2,6.4l-14.4,96c0,2.4,0.8,4.8,2.4,7.2l24,24c3.2,3.2,8,3.2,11.2,0l24-24
			c1.6-1.6,2.4-4,2.4-7.2l-14.4-96l39.2-6.4c12.8,0,23.2,11.2,23.2,24v112h16V368C480,345.6,462.4,328,440,328z M304.8,168H392
			c28,0,51.2,20.8,55.2,48H360C332,216,308.8,195.2,304.8,168z M384,460.8l-15.2-15.2l14.4-93.6h2.4l14.4,93.6L384,460.8z
			 M391.2,336h-14.4l-20.8-3.2c8-7.2,12-17.6,12-28.8v-4c0-3.2-2.4-6.4-5.6-7.2c-25.6-9.6-42.4-33.6-42.4-60.8c0-4,0-8,0.8-11.2
			C332,228,345.6,232,360,232h88c0,27.2-16.8,51.2-42.4,60c-3.2,0.8-5.6,4-5.6,7.2v4.8c0,10.4,4,20.8,12,28.8L391.2,336z"/>
	</g>
</g>
<g>
	<g>
		<rect x="416" y="384" width="24" height="16"/>
	</g>
</g>
<g>
	<g>
		<path d="M472,0H8C3.2,0,0,3.2,0,8v32c0,4.8,3.2,8,8,8h8v288H8c-4.8,0-8,3.2-8,8v32c0,4.8,3.2,8,8,8h208v88c0,4.8,3.2,8,8,8h32
			c4.8,0,8-3.2,8-8v-88h8v-16H16v-16h256v-16H32V48h416v112h16V48h8c4.8,0,8-3.2,8-8V8C480,3.2,476.8,0,472,0z M232,384h16v80h-16
			V384z M464,32H16V16h448V32z"/>
	</g>
</g>
<g>
	<g>
		<path d="M424,64H56c-4.8,0-8,3.2-8,8v160c0,4.8,3.2,8,8,8h232v-16H64v-44.8l61.6,20.8c0.8,0,1.6,0.8,2.4,0.8c2.4,0,4-0.8,5.6-2.4
			l44-44l43.2,21.6c2.4,1.6,5.6,0.8,8-0.8l85.6-63.2H344V96h-32c-1.6,0-3.2,0.8-4.8,1.6l-84,60.8l-44-21.6c-3.2-1.6-6.4-0.8-9.6,1.6
			l-44.8,44.8L64,162.4V80h352v56h16V72C432,67.2,428.8,64,424,64z"/>
	</g>
</g>
<g>
	<g>
		<path d="M269.6,290.4l-40-40c-3.2-3.2-8-3.2-11.2,0l-40,40c-3.2,3.2-3.2,8,0,11.2c1.6,1.6,3.2,2.4,5.6,2.4h16v16c0,4.8,3.2,8,8,8
			h32c4.8,0,8-3.2,8-8v-16h16c4.8,0,8-3.2,8-8C272,293.6,271.2,292,269.6,290.4z M240,288c-4.8,0-8,3.2-8,8v16h-16v-16
			c0-4.8-3.2-8-8-8h-4.8l20.8-20.8l20.8,20.8H240z"/>
	</g>
</g>
<g>
	<g>
		<path d="M165.6,274.4c-1.6-1.6-3.2-2.4-5.6-2.4h-16v-16c0-4.8-3.2-8-8-8h-32c-4.8,0-8,3.2-8,8v16H80c-4.8,0-8,3.2-8,8
			c0,2.4,0.8,4,2.4,5.6l40,40c3.2,3.2,8,3.2,11.2,0l40-40C168.8,282.4,168.8,277.6,165.6,274.4z M120,308.8L99.2,288h4.8
			c4.8,0,8-3.2,8-8v-16h16v16c0,4.8,3.2,8,8,8h4.8L120,308.8z"/>
	</g>
</g>
<g>
	<g>
		<polygon points="392,96 392,88 376,88 376,96 368,96 368,112 376,112 376,120 392,120 392,112 400,112 400,96 		"/>
	</g>
</g>
<g>
	<g>
		<polygon points="184,104 184,96 168,96 168,104 160,104 160,120 168,120 168,128 184,128 184,120 192,120 192,104 		"/>
	</g>
</g>
<g>
</g>
<g>
</g>
<g>
</g>
<g>
</g>
<g>
</g>
<g>
</g>
<g>
</g>
<g>
</g>
<g>
</g>
<g>
</g>
<g>
</g>
<g>
</g>
<g>
</g>
<g>
</g>
<g>
</g>
</svg>
