<?xml version="1.0" encoding="iso-8859-1"?>
<!-- Generator: Adobe Illustrator 21.0.0, SVG Export Plug-In . SVG Version: 6.00 Build 0)  -->
<svg version="1.1" id="Capa_1" xmlns="http://www.w3.org/2000/svg" xmlns:xlink="http://www.w3.org/1999/xlink" x="0px" y="0px"
	 viewBox="0 0 480.356 480.356" style="enable-background:new 0 0 480.356 480.356;" xml:space="preserve">
<g>
	<g>
		<path d="M472.178,0h-464c-4.418,0-8,3.582-8,8v352c0,4.418,3.582,8,8,8h32v-16h-24V144h240c4.418,0,8-3.582,8-8V16h24v136
			c-0.001,3.251,1.966,6.179,4.976,7.408l171.024,69.968v46.68L339.226,224.6c-0.967-0.397-2.003-0.601-3.048-0.6h-40
			c-4.418,0-8,3.582-8,8v64h16v-56h30.4l129.6,53.36V352h-136v16h144c4.418,0,8-3.582,8-8V8C480.178,3.582,476.596,0,472.178,0z
			 M112.178,128h-96V16h96V128z M248.178,128h-120V16h120V128z M464.178,212.08l-160-65.448V16h160V212.08z"/>
	</g>
</g>
<g>
	<g>
		<path d="M337.29,389.8c-0.235-0.239-0.472-0.477-0.712-0.712L295.49,348l6.344-6.344l-11.312-11.312l-26.344,26.344
			l-11.432-11.432c36.207-55.71,20.398-130.223-35.312-166.431S87.211,158.428,51.003,214.137
			c-36.207,55.71-20.398,130.223,35.312,166.431c39.866,25.91,91.253,25.91,131.119,0L228.866,392l-26.344,26.344l11.312,11.312
			l6.344-6.344l41.088,41.088c20.6,20.993,54.319,21.312,75.312,0.712C357.571,444.511,357.89,410.793,337.29,389.8z M152.178,384
			c-57.41-0.066-103.934-46.59-104-104c0-57.438,46.562-104,104-104s104,46.562,104,104S209.616,384,152.178,384z M243.034,358.168
			l9.832,9.832l-12.688,12.688l-9.832-9.832C234.881,366.944,239.122,362.704,243.034,358.168z M325.266,453.088
			c-14.549,14.549-38.139,14.549-52.688,0L231.49,412l52.688-52.688l41.088,41.088C339.815,414.949,339.815,438.539,325.266,453.088
			z"/>
	</g>
</g>
<g>
	<g>
		<path d="M152.178,192c-48.601,0-88,39.399-88,88c0,48.601,39.399,88,88,88s88-39.399,88-88
			C240.121,231.423,200.755,192.057,152.178,192z M152.178,352c-39.764,0-72-32.236-72-72c0-39.765,32.236-72,72-72
			c39.765,0,72,32.235,72,72C224.129,319.744,191.922,351.951,152.178,352z"/>
	</g>
</g>
<g>
	<g>
		<path d="M177.298,232.376c-18.492-13.872-44.727-10.127-58.599,8.365c-10.118,13.487-11.155,31.728-2.633,46.276l29.4,45.336
			c2.404,3.707,7.358,4.763,11.065,2.359c0.943-0.612,1.747-1.416,2.359-2.359l29.6-45.712
			C198.952,268.314,194.157,245.067,177.298,232.376z M174.898,278.32l-22.72,34.984l-22.456-34.608
			c-7.077-12.408-2.755-28.204,9.653-35.28c12.408-7.077,28.204-2.755,35.28,9.653c4.453,7.809,4.533,17.369,0.21,25.251
			L174.898,278.32z"/>
	</g>
</g>
<g>
	<g>
		<rect x="144.178" y="256" width="16" height="16"/>
	</g>
</g>
<g>
</g>
<g>
</g>
<g>
</g>
<g>
</g>
<g>
</g>
<g>
</g>
<g>
</g>
<g>
</g>
<g>
</g>
<g>
</g>
<g>
</g>
<g>
</g>
<g>
</g>
<g>
</g>
<g>
</g>
</svg>
